<?xml version="1.0" encoding="UTF-8"?>
<svg width="512" height="512" viewBox="0 0 512 512" fill="none" xmlns="http://www.w3.org/2000/svg">
  <path d="M256 0C114.617 0 0 114.617 0 256C0 397.383 114.617 512 256 512C397.383 512 512 397.383 512 256C512 114.617 397.383 0 256 0Z" fill="black"/>
  <path d="M256 113.143C243.38 113.143 232.714 119.653 227.086 129.47C225.011 132.74 223.429 136.704 223.429 141.143C223.429 154.551 234.164 165.286 247.572 165.286H264.429C277.837 165.286 288.572 154.551 288.572 141.143C288.572 127.735 277.837 117 264.429 117H256V113.143Z" fill="#25F4EE"/>
  <path d="M369.714 183.049V157.659C350.638 157.659 333.613 150.162 321.327 137.876L321.177 137.727C316.59 133.14 312.689 127.867 309.532 122.064V198.248C309.532 237.786 277.538 269.78 238 269.78C198.462 269.78 166.468 237.786 166.468 198.248C166.468 158.71 198.462 126.716 238 126.716C241.709 126.716 245.342 127.05 248.842 127.682V177.432C245.492 176.45 241.841 175.919 238 175.919C225.823 175.919 216.063 185.679 216.063 197.856C216.063 210.034 225.823 219.794 238 219.794C250.178 219.794 271.532 219.794 271.532 197.856V42H321.177C321.177 42.3353 321.327 42.7059 321.327 43.0412C321.677 52.4235 330.397 59.7647 340.833 59.7647H370.857V109.459C370.522 109.459 370.11 109.425 369.714 109.425V183.049Z" fill="#FE2C55"/>
  <path d="M309.46 198.248V122.064C305.395 114.336 299.72 107.515 292.798 102.092C279.877 91.6941 262.984 85.4118 244.523 85.4118H237.927C197.27 85.4118 164.23 118.452 164.23 159.109C164.23 199.766 197.27 232.806 237.927 232.806C240.953 232.806 243.913 232.583 246.806 232.172C235.635 230.756 227.164 221.246 227.164 209.597C227.164 197.419 236.924 187.659 249.102 187.659C249.335 187.659 249.534 187.693 249.766 187.693V177.432V127.682C246.267 127.05 242.633 126.716 238.925 126.716C199.386 126.716 167.392 158.71 167.392 198.248C167.392 237.786 199.386 269.78 238.925 269.78C278.463 269.78 310.457 237.786 310.457 198.248H309.46Z" fill="#25F4EE"/>
</svg>